<?xml version="1.0" standalone="no"?>
<!DOCTYPE svg PUBLIC "-//W3C//DTD SVG 20010904//EN"
 "http://www.w3.org/TR/2001/REC-SVG-20010904/DTD/svg10.dtd">
<svg version="1.0" xmlns="http://www.w3.org/2000/svg"
 width="2048.000000pt" height="2048.000000pt" viewBox="0 0 2048.000000 2048.000000"
 preserveAspectRatio="xMidYMid meet">

<g transform="translate(0.000000,2048.000000) scale(0.100000,-0.100000)"
fill="#000000" stroke="none">
<path d="M7655 12624 c-328 -47 -463 -92 -709 -238 -315 -186 -623 -533 -810
-912 -35 -71 -74 -157 -86 -192 -13 -34 -26 -64 -29 -66 -4 -3 -24 4 -46 14
-54 26 -160 26 -253 0 -202 -56 -386 -194 -583 -437 -233 -288 -460 -666 -753
-1258 -366 -737 -486 -1065 -505 -1378 -6 -100 -8 -110 -31 -127 -87 -67 -181
-90 -219 -56 -28 26 -34 64 -22 150 22 158 99 350 334 826 82 168 160 332 172
365 13 33 50 120 83 192 56 124 90 179 220 371 57 84 71 140 49 195 -21 48
-52 67 -112 67 -99 0 -218 -102 -265 -227 -35 -92 -67 -205 -74 -259 -16 -118
-11 -111 -72 -110 -41 1 -58 -4 -73 -19 -31 -31 -371 -723 -438 -890 -125
-310 -165 -512 -132 -665 15 -70 64 -139 119 -167 97 -49 278 -17 426 76 74
47 70 47 105 -17 9 -17 37 -42 62 -56 98 -58 225 -26 357 86 l64 56 28 -48
c49 -86 132 -129 222 -116 63 10 170 66 240 126 l59 51 29 -45 c31 -51 91 -99
145 -117 60 -19 168 -6 247 30 102 46 165 97 312 248 l131 136 -5 -54 c-6 -71
13 -221 33 -258 34 -66 116 -120 183 -121 18 0 48 -6 67 -14 140 -59 251 -7
384 177 86 120 285 459 459 782 38 72 93 173 122 225 88 160 363 685 560 1070
228 445 554 1078 666 1295 46 88 84 168 84 178 0 9 -10 27 -21 38 -33 33 -138
23 -226 -22 -97 -49 -139 -96 -212 -239 -35 -69 -116 -222 -181 -340 -358
-653 -497 -911 -620 -1150 -75 -146 -216 -420 -314 -610 -98 -190 -221 -428
-274 -530 -128 -250 -180 -343 -273 -490 -92 -146 -115 -177 -124 -168 -4 4
-12 40 -18 81 -9 67 -8 85 13 168 39 160 128 371 238 566 27 48 75 138 107
198 32 61 75 142 97 182 51 95 78 174 72 215 -7 42 -51 115 -87 142 -20 15
-43 21 -85 21 l-56 0 -26 -51 -25 -51 -59 28 c-75 36 -181 53 -269 45 -131
-12 -306 -87 -438 -185 -109 -83 -279 -258 -367 -381 -173 -240 -304 -576
-304 -782 l0 -77 -64 -61 c-80 -74 -108 -83 -141 -46 -60 70 -2 304 177 706
179 402 532 1095 584 1146 11 12 48 31 81 44 71 28 257 120 300 149 17 12 35
21 40 21 6 0 26 -30 45 -67 42 -81 153 -196 226 -235 98 -53 219 -69 354 -48
171 27 307 97 484 248 71 61 86 78 86 102 0 30 -30 60 -61 60 -10 0 -55 -30
-100 -66 -156 -123 -237 -169 -358 -200 -91 -23 -239 -16 -302 15 -69 33 -141
110 -182 193 -54 113 -54 108 5 153 84 64 268 254 329 340 139 197 199 341
199 481 0 61 -4 77 -32 124 -47 76 -87 95 -203 94 -64 0 -110 -7 -159 -22 -38
-12 -71 -20 -74 -17 -16 16 82 226 182 389 122 199 357 469 514 589 182 141
405 244 612 284 107 20 347 23 450 4 479 -86 860 -427 1041 -932 48 -135 103
-384 125 -564 30 -257 8 -633 -56 -925 -33 -151 -52 -212 -64 -206 -83 39
-250 100 -303 111 -87 19 -268 19 -354 1 -144 -31 -314 -123 -420 -229 -239
-238 -261 -611 -50 -825 102 -103 232 -152 402 -152 160 0 313 51 470 157 181
123 360 332 455 536 10 20 21 37 25 37 12 0 96 -113 112 -151 8 -19 19 -69 25
-111 14 -112 49 -179 124 -234 101 -74 190 -89 357 -59 47 8 116 27 154 41 64
25 237 129 251 153 4 5 19 19 35 30 l28 20 -3 -26 c-5 -48 15 -125 42 -160 32
-42 83 -68 116 -60 25 7 27 9 76 118 41 92 171 303 266 435 45 61 120 167 168
235 226 320 501 623 662 728 77 50 121 69 132 58 3 -3 -17 -39 -45 -81 -168
-249 -364 -611 -435 -804 -136 -372 -120 -605 49 -683 121 -56 284 10 454 185
40 42 74 76 75 76 2 0 8 -17 14 -37 27 -87 127 -185 229 -223 71 -26 232 -37
318 -21 202 37 350 199 389 426 30 170 18 335 -64 875 -14 94 -20 185 -20 300
0 263 -13 316 -94 377 -76 58 -181 68 -228 21 -19 -19 -20 -27 -12 -97 5 -42
9 -141 8 -221 -1 -126 -4 -157 -28 -235 -14 -49 -35 -110 -46 -135 -11 -25
-33 -81 -50 -125 -34 -92 -127 -263 -208 -383 -39 -58 -67 -89 -96 -105 -34
-18 -48 -36 -81 -103 -71 -145 -292 -394 -350 -394 -49 0 -56 49 -25 170 47
184 177 464 366 787 30 50 69 124 86 165 28 64 32 84 32 163 1 76 -3 97 -23
135 -50 96 -95 124 -196 123 -159 0 -292 -92 -558 -383 l-87 -95 36 80 c20 44
43 96 51 115 23 52 21 137 -4 185 -29 55 -54 76 -102 82 -62 8 -84 -2 -110
-49 -39 -71 -191 -338 -231 -408 -21 -36 -103 -190 -183 -343 -177 -338 -214
-393 -336 -515 -166 -164 -270 -227 -394 -239 -81 -7 -109 8 -140 75 -33 70
-29 250 7 386 31 115 100 282 148 357 l33 51 143 4 c79 2 178 11 220 20 177
37 336 147 380 265 62 167 23 315 -103 386 -44 25 -60 28 -135 28 -149 0 -270
-53 -452 -197 -242 -192 -480 -535 -563 -813 -42 -143 -35 -136 -83 -76 l-41
52 21 52 c135 337 200 678 200 1042 -1 386 -64 672 -217 980 -89 179 -192 325
-318 455 -218 223 -536 387 -862 445 -87 15 -378 28 -440 19z m-1755 -1549
c19 -23 4 -46 -110 -170 -56 -60 -128 -145 -161 -187 -81 -106 -240 -351 -319
-491 l-65 -116 -90 -37 c-49 -19 -98 -43 -107 -51 -10 -9 -18 -13 -18 -10 0 4
31 63 70 132 186 331 452 703 604 843 39 36 154 102 177 102 4 0 12 -7 19 -15z
m564 -7 c28 -104 -47 -296 -190 -489 -77 -104 -230 -266 -241 -255 -12 12 -4
243 12 341 13 85 22 108 53 154 55 81 127 157 197 206 98 70 157 85 169 43z
m-580 -844 c6 -19 -3 -28 -56 -61 -91 -58 -207 -117 -214 -110 -7 7 50 110
172 313 l79 131 6 -126 c3 -69 9 -136 13 -147z m4595 257 c21 -21 35 -96 25
-137 -21 -86 -94 -167 -194 -213 -82 -38 -157 -53 -255 -49 l-76 3 52 75 c81
115 241 270 318 308 74 37 103 40 130 13z m1986 -686 c30 -222 38 -451 17
-522 -42 -141 -171 -216 -312 -181 -102 26 -194 164 -176 263 6 30 75 133 157
235 71 88 219 309 251 375 12 25 25 42 29 38 4 -5 19 -98 34 -208z m-7365 43
c-97 -177 -303 -594 -412 -838 -155 -343 -249 -637 -265 -828 -6 -73 -8 -78
-52 -125 -44 -47 -105 -87 -134 -87 -59 0 -69 135 -23 309 49 187 113 343 329
806 142 305 366 736 401 772 13 13 174 82 194 83 8 0 -8 -37 -38 -92z m3635
-19 c39 -11 101 -37 139 -56 66 -33 68 -36 62 -65 -3 -16 -19 -58 -35 -91 -46
-95 -197 -355 -240 -412 -97 -128 -206 -226 -298 -268 -62 -28 -184 -29 -261
-3 -73 25 -153 100 -194 183 -28 58 -33 79 -36 162 -3 81 0 108 21 172 57 180
214 330 402 384 125 37 312 34 440 -6z m-2526 -460 c37 -13 65 -60 55 -92 -14
-46 -147 -334 -186 -401 -144 -250 -309 -497 -426 -639 -203 -247 -299 -307
-345 -217 -15 29 -18 51 -14 135 9 186 51 335 152 540 161 328 392 592 578
661 68 25 137 30 186 13z"/>
<path d="M16425 12396 c-254 -83 -497 -293 -857 -741 -158 -197 -433 -621
-745 -1150 -52 -88 -139 -234 -193 -325 -263 -445 -384 -708 -409 -894 -11
-77 -24 -95 -96 -137 -93 -53 -121 -33 -110 79 10 99 55 224 149 411 78 156
135 254 291 506 34 55 88 148 119 207 47 87 57 116 58 156 0 58 -28 118 -72
156 -67 56 -129 46 -175 -29 l-30 -50 -60 32 c-110 59 -261 68 -403 24 -145
-45 -363 -191 -522 -351 -246 -247 -470 -639 -510 -892 -18 -112 -9 -270 19
-333 25 -56 71 -109 116 -133 75 -39 247 -11 362 61 74 46 213 169 293 259
l69 78 -1 -113 c-1 -174 40 -251 150 -283 102 -30 229 10 344 107 45 37 68 48
68 31 0 -19 89 -97 136 -119 72 -33 188 -41 274 -19 178 46 402 222 575 452
118 156 267 419 342 602 20 49 23 52 58 52 20 0 35 -3 33 -7 -1 -5 -33 -58
-70 -120 -77 -128 -101 -182 -152 -342 -47 -144 -61 -256 -47 -361 14 -109 34
-152 97 -209 72 -66 131 -86 254 -85 183 1 345 66 568 230 l22 16 0 -61 c0
-35 6 -74 15 -90 31 -61 112 -104 153 -82 10 5 27 32 37 58 27 72 183 317 298
468 350 462 448 578 666 788 146 141 250 217 329 241 32 11 28 -4 -26 -75
-182 -240 -402 -614 -492 -835 -84 -206 -113 -391 -80 -514 15 -55 71 -115
127 -136 40 -15 54 -16 115 -6 82 14 124 34 212 102 37 28 71 48 78 44 7 -4 8
-3 4 4 -4 7 -3 12 2 12 5 0 15 -12 22 -26 20 -35 77 -79 147 -111 50 -23 71
-27 158 -27 264 0 514 146 781 457 92 108 112 141 100 172 -8 22 -52 36 -79
26 -12 -5 -86 -76 -163 -157 -210 -221 -365 -325 -496 -332 -61 -4 -72 -2 -93
18 -75 70 -53 282 56 527 52 118 98 201 146 266 l28 39 160 2 c150 2 166 5
252 34 272 93 428 304 368 496 -102 323 -572 189 -995 -282 -106 -119 -150
-179 -233 -327 -119 -209 -183 -389 -202 -561 -6 -56 -10 -65 -53 -106 -63
-60 -91 -78 -124 -78 -38 0 -42 23 -18 114 39 155 177 433 332 671 84 129 171
280 201 345 34 75 45 164 28 227 -15 54 -79 135 -124 156 -59 28 -178 17 -262
-25 -105 -53 -300 -220 -438 -377 -26 -29 -47 -50 -47 -47 0 3 14 29 32 57 77
125 95 220 59 309 -23 57 -69 90 -126 90 -53 0 -56 -3 -190 -220 -59 -96 -136
-221 -171 -277 -58 -93 -147 -248 -234 -408 -84 -154 -178 -280 -297 -397
-177 -172 -293 -239 -420 -242 -51 -1 -65 3 -86 22 -106 99 -23 489 168 788
l33 51 169 6 c110 3 189 11 228 22 94 26 203 84 266 143 200 185 159 485 -72
524 -176 30 -403 -79 -687 -333 l-117 -104 -72 -4 c-47 -2 -73 1 -73 7 0 6 7
41 16 79 9 37 16 106 16 152 -2 150 -67 236 -179 234 -71 -1 -131 -45 -171
-124 -30 -58 -34 -76 -34 -142 0 -112 31 -194 104 -273 l41 -44 -23 -63 c-118
-324 -371 -678 -591 -828 -101 -68 -164 -84 -223 -58 -30 14 -56 65 -56 109 0
115 211 541 480 970 54 85 139 223 189 305 50 83 112 182 136 220 25 39 73
116 107 172 l62 102 60 10 c81 14 213 80 366 181 248 165 390 287 583 504 156
176 230 335 231 501 1 113 -13 143 -86 179 -69 34 -172 35 -273 2z m179 -207
c-2 -188 -268 -546 -578 -779 -112 -83 -376 -249 -376 -235 0 13 244 357 333
470 56 71 122 157 147 190 63 85 315 336 375 374 30 19 60 31 75 29 23 -3 25
-7 24 -49z m-2422 -1700 c10 -5 25 -20 33 -33 14 -21 14 -28 -1 -72 -20 -61
-89 -204 -129 -267 -94 -149 -333 -508 -372 -561 -153 -200 -263 -320 -367
-398 -128 -96 -161 -75 -152 97 12 257 192 634 452 947 195 233 416 351 536
287z m2432 -22 c29 -22 32 -101 6 -170 -39 -102 -172 -202 -304 -226 -84 -15
-196 -14 -196 2 0 22 148 190 242 274 130 116 207 153 252 120z m2396 -16 c36
-68 -12 -219 -91 -283 -54 -44 -138 -87 -204 -104 -55 -15 -201 -19 -209 -6
-3 5 24 45 59 89 132 165 331 322 407 323 17 0 31 -7 38 -19z"/>
<path d="M4930 11414 c-163 -25 -239 -49 -385 -122 -412 -205 -785 -641 -1158
-1352 -109 -208 -414 -961 -442 -1090 -12 -57 -21 -14 -34 175 -11 154 -45
483 -55 545 -3 14 -19 111 -37 215 -17 105 -48 260 -69 345 -28 114 -35 157
-27 162 23 15 141 8 177 -10 66 -33 64 -112 -5 -185 -39 -42 -45 -75 -16 -101
28 -25 66 -14 134 39 68 54 97 106 97 172 0 55 -29 126 -62 154 -69 57 -150
71 -311 54 l-66 -7 -11 43 c-20 73 -99 268 -155 379 -100 199 -243 368 -359
425 -111 54 -303 43 -439 -27 -240 -121 -426 -327 -581 -642 -82 -165 -111
-255 -142 -425 -41 -231 -29 -455 34 -628 37 -100 59 -135 128 -204 65 -66
162 -115 260 -132 54 -9 83 -8 166 6 144 25 237 77 367 207 127 127 270 403
331 635 10 38 16 44 127 105 120 67 153 83 159 77 2 -2 15 -50 30 -108 72
-292 139 -725 169 -1091 3 -38 8 -98 11 -135 19 -201 24 -818 8 -993 -3 -36
-14 -109 -25 -162 -13 -68 -16 -104 -10 -121 13 -33 59 -44 100 -23 25 13 34
28 51 89 103 351 315 980 443 1312 263 684 468 1104 762 1560 67 104 218 300
304 395 88 97 237 218 331 268 197 105 387 109 568 11 84 -45 124 -49 146 -17
25 35 19 54 -26 91 -100 82 -331 134 -488 111z m-2852 -288 c87 -44 165 -147
271 -355 58 -116 159 -369 163 -413 3 -20 -11 -30 -108 -80 l-112 -58 5 163
c9 244 -20 371 -102 453 -74 73 -127 70 -253 -14 -168 -112 -296 -277 -358
-458 -35 -104 -38 -219 -7 -279 64 -122 175 -151 402 -104 57 11 104 19 106
17 7 -6 -63 -205 -91 -261 -75 -150 -218 -318 -311 -366 -28 -14 -61 -21 -98
-21 -49 0 -59 4 -93 35 -134 121 -188 431 -141 810 27 212 144 536 250 691
152 225 331 314 477 240z m29 -438 c36 -72 49 -225 35 -391 -9 -101 -16 -135
-30 -148 -24 -24 -206 -53 -290 -46 -58 4 -70 9 -94 36 -23 25 -28 41 -28 81
0 78 43 196 106 291 66 100 111 149 179 195 67 46 92 43 122 -18z"/>
<path d="M8850 8421 c-82 -25 -125 -74 -136 -153 -9 -63 19 -112 108 -190 145
-127 164 -157 134 -216 -21 -41 -70 -57 -126 -42 -33 9 -47 20 -68 56 -15 24
-29 44 -32 44 -3 0 -12 -25 -21 -56 l-17 -56 47 -21 c35 -16 65 -22 127 -22
72 0 85 3 123 28 48 32 71 76 71 137 0 57 -31 111 -92 162 -88 72 -155 143
-160 170 -20 104 123 145 185 53 27 -40 37 -36 37 14 0 50 -22 77 -74 90 -50
12 -70 13 -106 2z"/>
<path d="M9950 8420 c-107 -18 -190 -82 -236 -182 -25 -55 -29 -74 -28 -149 0
-73 4 -95 27 -142 35 -70 90 -127 153 -158 42 -21 63 -24 154 -24 91 0 112 3
154 24 66 32 117 85 152 157 25 51 29 70 29 144 0 73 -4 92 -27 135 -60 113
-137 173 -253 194 -64 12 -60 12 -125 1z m114 -61 c58 -14 111 -60 143 -123
35 -68 45 -213 19 -281 -36 -92 -97 -134 -197 -135 -75 0 -134 31 -176 94 -83
123 -75 317 17 400 22 20 52 38 67 42 16 3 33 7 38 9 20 7 47 5 89 -6z"/>
<path d="M11225 8376 c-13 -28 -73 -163 -134 -301 -61 -137 -118 -256 -126
-264 -12 -12 -18 -10 -44 18 -17 18 -60 77 -98 132 l-67 99 38 37 c46 45 63
78 69 131 5 52 -19 109 -62 145 -45 38 -89 44 -261 39 l-75 -2 0 -320 0 -320
58 0 59 0 -6 38 c-3 20 -7 77 -8 126 -2 88 -2 90 23 96 52 14 78 -11 183 -172
l57 -88 108 0 109 0 17 53 c9 28 26 73 37 100 l21 48 141 -3 140 -3 32 -75
c18 -41 33 -85 33 -97 1 -22 5 -23 71 -23 39 0 70 2 70 5 0 3 -13 29 -29 58
-17 28 -68 135 -114 237 -120 261 -158 345 -162 348 -2 2 -15 5 -30 7 -24 2
-30 -4 -50 -49z m-504 -44 c37 -41 46 -104 24 -160 -18 -45 -58 -75 -112 -85
-62 -12 -63 -9 -63 138 0 97 3 135 13 139 6 3 34 4 61 2 41 -3 55 -9 77 -34z
m595 -174 c27 -61 51 -115 52 -120 2 -4 -46 -8 -107 -8 l-111 0 15 38 c38 92
90 202 95 202 4 0 29 -50 56 -112z"/>
<path d="M18056 8411 c-8 -9 -39 -72 -69 -141 -31 -69 -94 -205 -141 -304 -47
-98 -86 -182 -86 -187 0 -5 25 -9 55 -9 53 0 55 1 55 28 0 15 13 59 29 97 l28
70 144 0 144 0 31 -84 c18 -47 30 -91 27 -98 -4 -10 12 -13 72 -13 82 0 80 -2
43 52 -10 14 -58 118 -107 230 -152 349 -161 366 -187 371 -14 2 -29 -2 -38
-12z m71 -258 l52 -118 -55 -3 c-30 -2 -78 -2 -108 0 l-54 3 52 117 c28 65 53
118 56 118 3 0 28 -53 57 -117z"/>
<path d="M7987 8413 l-77 -4 6 -77 c7 -95 10 -380 5 -482 l-4 -75 55 -3 56 -3
-6 131 -5 131 49 -3 49 -3 85 -127 85 -127 68 -1 c37 0 67 3 67 6 0 3 -22 31
-49 62 -26 31 -73 95 -104 140 l-55 84 41 36 c70 64 87 151 44 227 -44 77
-118 98 -310 88z m159 -58 c41 -17 64 -63 64 -125 0 -86 -52 -140 -136 -140
l-54 0 0 130 c0 112 2 130 18 139 25 15 67 13 108 -4z"/>
<path d="M11665 8095 l0 -325 44 0 44 0 -5 220 c-3 121 -2 220 3 220 4 0 76
-73 161 -162 249 -265 288 -302 298 -292 5 5 10 152 12 332 l3 322 -40 0 -40
0 3 -232 3 -233 -58 60 c-31 33 -89 94 -127 135 -157 169 -270 280 -285 280
-14 0 -16 -35 -16 -325z"/>
<path d="M14745 8413 l-80 -4 0 -319 0 -320 55 0 55 0 -3 122 -3 123 69 1 c56
2 81 7 122 30 121 66 148 227 54 316 -36 34 -105 59 -153 56 -20 -1 -72 -4
-116 -5z m179 -82 c23 -24 30 -41 34 -84 9 -113 -39 -177 -134 -177 l-54 0 0
144 c0 106 3 146 13 150 6 3 34 4 62 1 38 -3 56 -11 79 -34z"/>
<path d="M16715 8413 l-150 -3 1 -238 c1 -130 -1 -274 -5 -320 l-6 -82 177 0
177 0 7 35 c3 20 4 38 1 41 -2 3 -33 1 -68 -5 -35 -5 -90 -12 -121 -15 l-57
-4 -6 31 c-3 18 -5 75 -3 127 l3 95 100 0 100 0 3 37 3 38 -103 -6 -104 -7 1
109 0 109 60 0 c33 -1 82 -4 108 -8 48 -7 48 -7 63 28 18 44 18 45 -8 43 -13
-1 -90 -4 -173 -5z"/>
<path d="M17095 8413 l-70 -4 0 -319 0 -320 55 0 55 0 -4 130 -3 130 40 0 c35
0 45 -6 76 -41 19 -23 61 -81 93 -130 l58 -89 69 0 c74 0 74 0 27 50 -21 22
-146 192 -159 217 -10 18 -5 27 37 70 54 53 68 93 57 166 -14 91 -102 150
-215 145 -25 -1 -77 -4 -116 -5z m176 -64 c46 -24 65 -130 34 -189 -29 -55
-102 -92 -154 -75 -20 6 -21 13 -21 136 0 125 1 130 23 138 25 11 91 5 118
-10z"/>
<path d="M8485 8090 l0 -320 50 0 50 0 0 320 0 320 -50 0 -50 0 0 -320z"/>
<path d="M9106 8394 c-8 -22 -7 -74 2 -74 4 0 32 7 62 15 30 8 79 15 108 15
l54 0 -4 -290 -3 -290 55 0 55 0 -3 290 -3 290 58 0 c32 0 82 -6 111 -14 l52
-13 0 43 0 44 -269 0 c-236 0 -270 -2 -275 -16z"/>
<path d="M12300 8366 l0 -44 53 14 c28 7 76 14 105 14 l53 0 -3 -290 -3 -290
55 0 55 0 -3 290 -4 290 59 0 c32 0 81 -6 110 -14 28 -8 54 -11 57 -8 3 3 6
23 6 44 l0 38 -270 0 -270 0 0 -44z"/>
<path d="M12915 8090 l0 -320 175 2 175 3 3 33 3 32 -125 -6 -126 -7 0 128 0
128 100 -6 100 -6 0 34 c0 39 8 37 -117 35 l-83 -1 0 110 0 111 53 -1 c28 0
77 -4 107 -9 59 -9 80 2 80 42 0 17 -13 18 -172 18 l-173 0 0 -320z"/>
<path d="M15165 8090 l0 -320 55 0 55 0 0 320 0 320 -55 0 -55 0 0 -320z"/>
<path d="M15400 8366 l0 -43 58 13 c50 11 302 24 302 16 0 -7 -101 -145 -247
-340 -84 -111 -153 -212 -153 -222 0 -19 8 -20 260 -20 l259 0 12 40 c7 22 10
42 8 44 -2 1 -40 -2 -84 -9 -44 -6 -131 -13 -193 -14 l-114 -2 33 48 c74 109
251 353 308 427 33 43 61 85 61 92 0 12 -46 14 -255 14 l-255 0 0 -44z"/>
<path d="M15970 8365 c0 -25 4 -45 8 -45 5 0 29 7 53 15 34 12 78 15 172 13
l127 -3 -168 -230 c-92 -127 -185 -253 -205 -279 -20 -27 -37 -53 -37 -57 0
-5 121 -9 268 -9 l268 0 11 40 c6 22 8 42 4 44 -3 2 -33 -3 -66 -10 -33 -7
-120 -13 -193 -13 l-134 -1 48 68 c86 120 256 355 305 421 27 36 49 71 49 78
0 10 -52 13 -255 13 l-255 0 0 -45z"/>
<path d="M17585 8090 l0 -320 55 0 55 0 0 320 0 320 -55 0 -55 0 0 -320z"/>
<path d="M13872 8174 c-27 -19 -52 -65 -52 -96 0 -13 9 -37 19 -54 56 -91 197
-44 193 64 -3 75 -100 128 -160 86z"/>
</g>
</svg>
