<svg xmlns="http://www.w3.org/2000/svg" xmlns:xlink="http://www.w3.org/1999/xlink" width="500" zoomAndPan="magnify" viewBox="0 0 375 374.999991" height="500" preserveAspectRatio="xMidYMid meet" version="1.0"><defs><g/><clipPath id="5f1ba2359c"><path d="M 0.679688 0.71875 L 353.960938 0.71875 L 353.960938 294 L 0.679688 294 Z M 0.679688 0.71875 " clip-rule="nonzero"/></clipPath><clipPath id="e3d4fb250d"><rect x="0" width="354" y="0" height="294"/></clipPath><clipPath id="acdd07870f"><path d="M 0.679688 178 L 349 178 L 349 363.601562 L 0.679688 363.601562 Z M 0.679688 178 " clip-rule="nonzero"/></clipPath><clipPath id="a8a4b8c50b"><rect x="0" width="349" y="0" height="186"/></clipPath><clipPath id="eed40e834a"><rect x="0" width="354" y="0" height="364"/></clipPath></defs><g transform="matrix(1, 0, 0, 1, 13, 0)"><g clip-path="url(#eed40e834a)"><g clip-path="url(#5f1ba2359c)"><g transform="matrix(1, 0, 0, 1, -0.000000000000001776, 0)"><g clip-path="url(#e3d4fb250d)"><g fill="#ff9900" fill-opacity="1"><g transform="translate(0.906609, 212.621671)"><g><path d="M 70.34375 2.578125 C 57.144531 2.578125 45.742188 -0.144531 36.140625 -5.59375 C 26.535156 -11.039062 19.148438 -18.851562 13.984375 -29.03125 C 8.816406 -39.21875 6.234375 -51.269531 6.234375 -65.1875 C 6.234375 -80.675781 9.316406 -94.082031 15.484375 -105.40625 C 21.648438 -116.738281 30.46875 -125.453125 41.9375 -131.546875 C 53.414062 -137.640625 66.972656 -140.6875 82.609375 -140.6875 C 88.203125 -140.6875 94.148438 -140.289062 100.453125 -139.5 C 106.765625 -138.71875 112.144531 -137.894531 116.59375 -137.03125 C 121.039062 -136.175781 123.910156 -135.601562 125.203125 -135.3125 L 126.703125 -132.515625 C 126.421875 -131.648438 125.921875 -129.460938 125.203125 -125.953125 C 124.484375 -122.441406 123.726562 -117.78125 122.9375 -111.96875 C 122.15625 -106.164062 121.546875 -99.960938 121.109375 -93.359375 L 100.46875 -91.859375 C 100.601562 -92.429688 100.742188 -93.789062 100.890625 -95.9375 C 101.035156 -98.09375 101.109375 -100.675781 101.109375 -103.6875 C 101.109375 -109.707031 99.28125 -113.972656 95.625 -116.484375 C 91.96875 -118.992188 85.90625 -120.25 77.4375 -120.25 C 64.394531 -120.25 54.644531 -116.34375 48.1875 -108.53125 C 41.726562 -100.71875 38.5 -88.707031 38.5 -72.5 C 38.5 -54.851562 41.757812 -41.191406 48.28125 -31.515625 C 54.8125 -21.835938 63.890625 -17 75.515625 -17 C 79.378906 -17 82.890625 -17.425781 86.046875 -18.28125 C 89.203125 -19.144531 91.675781 -20.039062 93.46875 -20.96875 C 95.257812 -21.90625 96.375 -22.515625 96.8125 -22.796875 L 96.8125 -43.234375 C 96.8125 -47.398438 96.164062 -50.160156 94.875 -51.515625 C 93.582031 -52.878906 91 -53.5625 87.125 -53.5625 L 75.9375 -53.5625 L 74.859375 -55.28125 L 77.015625 -70.5625 C 80.453125 -70.5625 83.390625 -70.488281 85.828125 -70.34375 C 93.859375 -70.0625 100.890625 -69.921875 106.921875 -69.921875 C 111.367188 -69.921875 115.742188 -70.0625 120.046875 -70.34375 C 124.347656 -70.632812 127.140625 -70.847656 128.421875 -70.984375 L 129.9375 -62.8125 C 127.5 -61.238281 125.671875 -59.265625 124.453125 -56.890625 C 123.234375 -54.523438 122.40625 -51.15625 121.96875 -46.78125 C 121.539062 -42.414062 121.328125 -36 121.328125 -27.53125 C 121.328125 -18.925781 121.832031 -12.6875 122.84375 -8.8125 L 120.90625 -6.234375 C 120.90625 -6.097656 118.5 -5.238281 113.6875 -3.65625 C 108.882812 -2.082031 102.71875 -0.648438 95.1875 0.640625 C 87.664062 1.929688 79.382812 2.578125 70.34375 2.578125 Z M 70.34375 2.578125 "/></g></g></g><g fill="#ff9900" fill-opacity="1"><g transform="translate(141.583115, 212.621671)"><g><path d="M 67.765625 2.578125 C 55.140625 2.578125 44.203125 -0.179688 34.953125 -5.703125 C 25.703125 -11.222656 18.601562 -19.070312 13.65625 -29.25 C 8.707031 -39.4375 6.234375 -51.484375 6.234375 -65.390625 C 6.234375 -80.304688 9.171875 -93.429688 15.046875 -104.765625 C 20.929688 -116.097656 29.21875 -124.914062 39.90625 -131.21875 C 50.59375 -137.53125 62.890625 -140.6875 76.796875 -140.6875 C 89.703125 -140.6875 100.851562 -138 110.25 -132.625 C 119.644531 -127.25 126.816406 -119.503906 131.765625 -109.390625 C 136.710938 -99.273438 139.1875 -87.265625 139.1875 -73.359375 C 139.1875 -58.441406 136.207031 -45.207031 130.25 -33.65625 C 124.300781 -22.113281 115.910156 -13.1875 105.078125 -6.875 C 94.253906 -0.570312 81.816406 2.578125 67.765625 2.578125 Z M 73.359375 -15.703125 C 83.679688 -15.703125 91.742188 -19.753906 97.546875 -27.859375 C 103.359375 -35.960938 106.265625 -47.398438 106.265625 -62.171875 C 106.265625 -80.960938 103.179688 -95.335938 97.015625 -105.296875 C 90.847656 -115.265625 82.101562 -120.25 70.78125 -120.25 C 60.59375 -120.25 52.664062 -116.195312 47 -108.09375 C 41.332031 -100 38.5 -88.5625 38.5 -73.78125 C 38.5 -55 41.546875 -40.625 47.640625 -30.65625 C 53.742188 -20.6875 62.316406 -15.703125 73.359375 -15.703125 Z M 73.359375 -15.703125 "/></g></g></g><g fill="#ff9900" fill-opacity="1"><g transform="translate(286.776743, 212.621671)"><g><path d="M 20 -50.546875 L 15.921875 -143.265625 L 18.5 -146.9375 L 46.46875 -151.453125 L 49.90625 -147.796875 L 36.78125 -49.90625 L 23.453125 -47.546875 Z M 26.671875 2.359375 C 21.515625 2.359375 17.609375 0.925781 14.953125 -1.9375 C 12.296875 -4.800781 10.96875 -8.671875 10.96875 -13.546875 C 10.96875 -18.710938 12.507812 -22.910156 15.59375 -26.140625 C 18.675781 -29.367188 22.875 -30.984375 28.1875 -30.984375 C 33.195312 -30.984375 37.066406 -29.546875 39.796875 -26.671875 C 42.523438 -23.804688 43.890625 -19.9375 43.890625 -15.0625 C 43.890625 -9.894531 42.3125 -5.695312 39.15625 -2.46875 C 36 0.75 31.835938 2.359375 26.671875 2.359375 Z M 26.671875 2.359375 "/></g></g></g></g></g></g><g clip-path="url(#acdd07870f)"><g transform="matrix(1, 0, 0, 1, -0.000000000000001776, 178)"><g clip-path="url(#a8a4b8c50b)"><g fill="#ff9900" fill-opacity="1"><g transform="translate(0.906609, 138.711044)"><g><path d="M 6.09375 -7.578125 C 9.96875 -8.210938 12.5625 -9.34375 13.875 -10.96875 C 15.1875 -12.59375 15.84375 -15.390625 15.84375 -19.359375 L 15.96875 -70.921875 C 15.96875 -73.816406 15.675781 -75.757812 15.09375 -76.75 C 14.507812 -77.738281 13.359375 -78.234375 11.640625 -78.234375 C 10.734375 -78.234375 9.875 -78.1875 9.0625 -78.09375 C 8.25 -78.007812 7.707031 -77.96875 7.4375 -77.96875 L 6.625 -79.1875 L 7.71875 -87.3125 C 9.34375 -87.21875 12.476562 -87.125 17.125 -87.03125 C 21.769531 -86.945312 26.800781 -86.90625 32.21875 -86.90625 C 50.71875 -86.90625 63.394531 -87.445312 70.25 -88.53125 L 71.328125 -87.03125 C 71.054688 -85.59375 70.582031 -82.410156 69.90625 -77.484375 C 69.226562 -72.566406 68.753906 -67.492188 68.484375 -62.265625 L 56.4375 -61.59375 C 56.4375 -62.039062 56.484375 -62.804688 56.578125 -63.890625 C 56.671875 -64.972656 56.71875 -66.054688 56.71875 -67.140625 C 56.71875 -69.753906 56.378906 -71.644531 55.703125 -72.8125 C 55.023438 -73.988281 53.710938 -74.78125 51.765625 -75.1875 C 49.828125 -75.59375 46.648438 -75.796875 42.234375 -75.796875 C 39.890625 -75.796875 38.265625 -75.707031 37.359375 -75.53125 C 36.453125 -75.351562 35.84375 -74.945312 35.53125 -74.3125 C 35.21875 -73.675781 35.015625 -72.640625 34.921875 -71.203125 L 33.96875 -47.640625 L 46.703125 -47.515625 C 48.410156 -47.515625 50.929688 -47.691406 54.265625 -48.046875 C 57.609375 -48.410156 59.820312 -48.640625 60.90625 -48.734375 L 61.859375 -47.515625 L 59.96875 -36 C 58.882812 -36.09375 56.785156 -36.179688 53.671875 -36.265625 C 50.554688 -36.359375 47.285156 -36.40625 43.859375 -36.40625 C 40.609375 -36.40625 37.175781 -36.09375 33.5625 -35.46875 L 33.15625 -18.953125 C 33.15625 -15.523438 33.539062 -13.222656 34.3125 -12.046875 C 35.082031 -10.867188 36.640625 -10.28125 38.984375 -10.28125 C 40.429688 -10.28125 42.097656 -10.367188 43.984375 -10.546875 C 45.878906 -10.734375 47.144531 -10.875 47.78125 -10.96875 L 49 -9.609375 L 47.515625 0.546875 C 45.972656 0.453125 43.101562 0.335938 38.90625 0.203125 C 34.71875 0.0664062 30.546875 0 26.390625 0 C 22.242188 0 17.976562 0.203125 13.59375 0.609375 C 9.21875 1.015625 6.398438 1.304688 5.140625 1.484375 Z M 6.09375 -7.578125 "/></g></g></g><g fill="#ff9900" fill-opacity="1"><g transform="translate(71.416554, 138.711044)"><g><path d="M 42.640625 1.625 C 34.691406 1.625 27.804688 -0.109375 21.984375 -3.578125 C 16.171875 -7.054688 11.707031 -12 8.59375 -18.40625 C 5.476562 -24.8125 3.921875 -32.394531 3.921875 -41.15625 C 3.921875 -50.539062 5.769531 -58.796875 9.46875 -65.921875 C 13.175781 -73.046875 18.390625 -78.59375 25.109375 -82.5625 C 31.828125 -86.539062 39.566406 -88.53125 48.328125 -88.53125 C 56.441406 -88.53125 63.453125 -86.835938 69.359375 -83.453125 C 75.273438 -80.066406 79.789062 -75.191406 82.90625 -68.828125 C 86.019531 -62.460938 87.578125 -54.90625 87.578125 -46.15625 C 87.578125 -36.769531 85.703125 -28.441406 81.953125 -21.171875 C 78.210938 -13.910156 72.9375 -8.296875 66.125 -4.328125 C 59.3125 -0.359375 51.484375 1.625 42.640625 1.625 Z M 46.15625 -9.875 C 52.65625 -9.875 57.734375 -12.421875 61.390625 -17.515625 C 65.046875 -22.617188 66.875 -29.820312 66.875 -39.125 C 66.875 -50.9375 64.929688 -59.976562 61.046875 -66.25 C 57.171875 -72.53125 51.664062 -75.671875 44.53125 -75.671875 C 38.125 -75.671875 33.140625 -73.117188 29.578125 -68.015625 C 26.015625 -62.921875 24.234375 -55.722656 24.234375 -46.421875 C 24.234375 -34.609375 26.148438 -25.5625 29.984375 -19.28125 C 33.816406 -13.007812 39.207031 -9.875 46.15625 -9.875 Z M 46.15625 -9.875 "/></g></g></g><g fill="#ff9900" fill-opacity="1"><g transform="translate(162.768427, 138.711044)"><g><path d="M 42.640625 1.625 C 34.691406 1.625 27.804688 -0.109375 21.984375 -3.578125 C 16.171875 -7.054688 11.707031 -12 8.59375 -18.40625 C 5.476562 -24.8125 3.921875 -32.394531 3.921875 -41.15625 C 3.921875 -50.539062 5.769531 -58.796875 9.46875 -65.921875 C 13.175781 -73.046875 18.390625 -78.59375 25.109375 -82.5625 C 31.828125 -86.539062 39.566406 -88.53125 48.328125 -88.53125 C 56.441406 -88.53125 63.453125 -86.835938 69.359375 -83.453125 C 75.273438 -80.066406 79.789062 -75.191406 82.90625 -68.828125 C 86.019531 -62.460938 87.578125 -54.90625 87.578125 -46.15625 C 87.578125 -36.769531 85.703125 -28.441406 81.953125 -21.171875 C 78.210938 -13.910156 72.9375 -8.296875 66.125 -4.328125 C 59.3125 -0.359375 51.484375 1.625 42.640625 1.625 Z M 46.15625 -9.875 C 52.65625 -9.875 57.734375 -12.421875 61.390625 -17.515625 C 65.046875 -22.617188 66.875 -29.820312 66.875 -39.125 C 66.875 -50.9375 64.929688 -59.976562 61.046875 -66.25 C 57.171875 -72.53125 51.664062 -75.671875 44.53125 -75.671875 C 38.125 -75.671875 33.140625 -73.117188 29.578125 -68.015625 C 26.015625 -62.921875 24.234375 -55.722656 24.234375 -46.421875 C 24.234375 -34.609375 26.148438 -25.5625 29.984375 -19.28125 C 33.816406 -13.007812 39.207031 -9.875 46.15625 -9.875 Z M 46.15625 -9.875 "/></g></g></g><g fill="#ff9900" fill-opacity="1"><g transform="translate(254.1203, 138.711044)"><g><path d="M 43.046875 1.625 C 41.597656 1.445312 38.640625 1.128906 34.171875 0.671875 C 29.710938 0.222656 25.859375 0 22.609375 0 C 19.628906 0 16.285156 0.175781 12.578125 0.53125 C 8.878906 0.894531 6.492188 1.171875 5.421875 1.359375 L 6.21875 -7.71875 C 10.101562 -8.34375 12.722656 -9.46875 14.078125 -11.09375 C 15.429688 -12.71875 16.109375 -15.425781 16.109375 -19.21875 L 16.109375 -70.796875 C 16.109375 -73.679688 15.835938 -75.617188 15.296875 -76.609375 C 14.753906 -77.609375 13.625 -78.109375 11.90625 -78.109375 C 10.914062 -78.109375 9.96875 -78.0625 9.0625 -77.96875 C 8.164062 -77.875 7.582031 -77.828125 7.3125 -77.828125 L 6.625 -79.046875 L 7.71875 -87.3125 C 8.976562 -87.3125 11.320312 -87.242188 14.75 -87.109375 C 18.175781 -86.972656 21.515625 -86.90625 24.765625 -86.90625 C 28.734375 -86.90625 32.882812 -86.972656 37.21875 -87.109375 C 41.550781 -87.242188 44.53125 -87.351562 46.15625 -87.4375 C 55.175781 -87.4375 62.976562 -85.8125 69.5625 -82.5625 C 76.15625 -79.320312 81.210938 -74.675781 84.734375 -68.625 C 88.253906 -62.582031 90.015625 -55.363281 90.015625 -46.96875 C 90.015625 -37.582031 88.003906 -29.1875 83.984375 -21.78125 C 79.972656 -14.382812 74.398438 -8.632812 67.265625 -4.53125 C 60.140625 -0.425781 52.066406 1.625 43.046875 1.625 Z M 38.84375 -76.078125 C 37.40625 -76.078125 36.414062 -75.847656 35.875 -75.390625 C 35.332031 -74.941406 35.015625 -74.085938 34.921875 -72.828125 C 33.742188 -47.648438 33.15625 -29.914062 33.15625 -19.625 C 33.15625 -16.914062 33.472656 -14.863281 34.109375 -13.46875 C 34.742188 -12.070312 35.894531 -11.101562 37.5625 -10.5625 C 39.226562 -10.019531 41.640625 -9.75 44.796875 -9.75 C 52.742188 -9.75 58.8125 -12.546875 63 -18.140625 C 67.195312 -23.734375 69.296875 -31.945312 69.296875 -42.78125 C 69.296875 -54.238281 66.789062 -62.648438 61.78125 -68.015625 C 56.78125 -73.390625 49.132812 -76.078125 38.84375 -76.078125 Z M 38.84375 -76.078125 "/></g></g></g></g></g></g></g></g></svg>